<svg xmlns="http://www.w3.org/2000/svg" width="16" height="16" fill="currentColor" viewBox="0 0 16 16" role="img" title="delete" aria-label="delete">
  <path d="M5.5 5.5a.5.5 0 0 1 .5.5v6a.5.5 0 0 1-1 0v-6a.5.5 0 0 1 .5-.5zm2.5 0a.5.5 0 0 1 .5.5v6a.5.5 0 0 1-1 0v-6a.5.5 0 0 1 .5-.5zm2.5.5a.5.5 0 0 0-1 0v6a.5.5 0 0 0 1 0v-6z"/>
  <path fill-rule="evenodd" d="M14.5 3a1 1 0 0 1-1 1H13v9a2 2 0 0 1-2 2H5a2 2 0 0 1-2-2V4h-.5a1 1 0 0 1 0-2H5a1 1 0 0 1 1-1h4a1 1 0 0 1 1 1h2.5a1 1 0 0 1 1 1zM4.118 4l.82 9.823A1 1 0 0 0 5.933 15h4.134a1 1 0 0 0 .995-.877L11.882 4H4.118z"/>
</svg>