<svg xmlns="http://www.w3.org/2000/svg" width="16" height="16" fill="currentColor" viewBox="0 0 16 16" role="img" title="settings" aria-label="settings">
  <path d="M9.405 1.05a1 1 0 0 1 .19 1.392l-.542.813c.376.219.715.49 1.009.804l.837-.14a1 1 0 0 1 1.124.753l.25 1.19a1 1 0 0 1-.57 1.116l-.775.338a5.98 5.98 0 0 1 0 1.234l.775.338a1 1 0 0 1 .57 1.116l-.25 1.19a1 1 0 0 1-1.124.753l-.837-.14a5.985 5.985 0 0 1-1.009.804l.542.813a1 1 0 0 1-.19 1.392l-.95.683a1 1 0 0 1-1.176 0l-.95-.683a1 1 0 0 1-.19-1.392l.542-.813a5.985 5.985 0 0 1-1.009-.804l-.837.14a1 1 0 0 1-1.124-.753l-.25-1.19a1 1 0 0 1 .57-1.116l.775-.338a5.98 5.98 0 0 1 0-1.234l-.775-.338a1 1 0 0 1-.57-1.116l.25-1.19a1 1 0 0 1 1.124-.753l.837.14a5.985 5.985 0 0 1 1.009-.804l-.542-.813a1 1 0 0 1 .19-1.392l.95-.683a1 1 0 0 1 1.176 0l.95.683zM8 10a2 2 0 1 0 0-4 2 2 0 0 0 0 4z"/>
</svg>